<svg xmlns="http://www.w3.org/2000/svg" xmlns:xlink="http://www.w3.org/1999/xlink" width="500" zoomAndPan="magnify" viewBox="0 0 375 374.999991" height="500" preserveAspectRatio="xMidYMid meet" version="1.0"><defs><clipPath id="bf8c87fba5"><path d="M 101.253906 101.253906 L 273.746094 101.253906 L 273.746094 273.746094 L 101.253906 273.746094 Z M 101.253906 101.253906 " clip-rule="nonzero"/></clipPath><clipPath id="ad6bdf04c6"><path d="M 187.5 101.253906 C 139.867188 101.253906 101.253906 139.867188 101.253906 187.5 C 101.253906 235.132812 139.867188 273.746094 187.5 273.746094 C 235.132812 273.746094 273.746094 235.132812 273.746094 187.5 C 273.746094 139.867188 235.132812 101.253906 187.5 101.253906 Z M 187.5 101.253906 " clip-rule="nonzero"/></clipPath><clipPath id="93e9f03260"><path d="M 186 117.382812 L 189 117.382812 L 189 139 L 186 139 Z M 186 117.382812 " clip-rule="nonzero"/></clipPath><clipPath id="649e826056"><path d="M 117.382812 186 L 139 186 L 139 189 L 117.382812 189 Z M 117.382812 186 " clip-rule="nonzero"/></clipPath><clipPath id="e2d57a2d2a"><path d="M 186 236 L 189 236 L 189 257.632812 L 186 257.632812 Z M 186 236 " clip-rule="nonzero"/></clipPath><clipPath id="21493cf788"><path d="M 236 186 L 257.632812 186 L 257.632812 189 L 236 189 Z M 236 186 " clip-rule="nonzero"/></clipPath><clipPath id="75562402df"><path d="M 101.253906 101.253906 L 273.742188 101.253906 L 273.742188 273.742188 L 101.253906 273.742188 Z M 101.253906 101.253906 " clip-rule="nonzero"/></clipPath><clipPath id="83ef21a421"><path d="M 187.5 101.253906 C 139.867188 101.253906 101.253906 139.867188 101.253906 187.5 C 101.253906 235.132812 139.867188 273.742188 187.5 273.742188 C 235.132812 273.742188 273.742188 235.132812 273.742188 187.5 C 273.742188 139.867188 235.132812 101.253906 187.5 101.253906 Z M 187.5 101.253906 " clip-rule="nonzero"/></clipPath><clipPath id="07391886aa"><path d="M 101.253906 101.253906 L 273.746094 101.253906 L 273.746094 273.746094 L 101.253906 273.746094 Z M 101.253906 101.253906 " clip-rule="nonzero"/></clipPath><clipPath id="ec4d42dfb7"><path d="M 187.5 101.253906 C 139.867188 101.253906 101.253906 139.867188 101.253906 187.5 C 101.253906 235.132812 139.867188 273.746094 187.5 273.746094 C 235.132812 273.746094 273.746094 235.132812 273.746094 187.5 C 273.746094 139.867188 235.132812 101.253906 187.5 101.253906 Z M 187.5 101.253906 " clip-rule="nonzero"/></clipPath><clipPath id="ef99c7aef9"><path d="M 186 117.382812 L 189 117.382812 L 189 139 L 186 139 Z M 186 117.382812 " clip-rule="nonzero"/></clipPath><clipPath id="fb8054bf9c"><path d="M 117.382812 186 L 139 186 L 139 189 L 117.382812 189 Z M 117.382812 186 " clip-rule="nonzero"/></clipPath><clipPath id="0884625e55"><path d="M 186 236 L 189 236 L 189 257.632812 L 186 257.632812 Z M 186 236 " clip-rule="nonzero"/></clipPath><clipPath id="14b5235180"><path d="M 236 186 L 257.632812 186 L 257.632812 189 L 236 189 Z M 236 186 " clip-rule="nonzero"/></clipPath><clipPath id="4bead0b027"><path d="M 97.628906 97.628906 L 277.371094 97.628906 L 277.371094 277.371094 L 97.628906 277.371094 Z M 97.628906 97.628906 " clip-rule="nonzero"/></clipPath><clipPath id="a5a18c4411"><path d="M 187.5 97.628906 C 137.863281 97.628906 97.628906 137.863281 97.628906 187.5 C 97.628906 237.132812 137.863281 277.371094 187.5 277.371094 C 237.132812 277.371094 277.371094 237.132812 277.371094 187.5 C 277.371094 137.863281 237.132812 97.628906 187.5 97.628906 Z M 187.5 97.628906 " clip-rule="nonzero"/></clipPath></defs><g clip-path="url(#bf8c87fba5)"><g clip-path="url(#ad6bdf04c6)"><path fill="#ffffff" d="M 101.253906 101.253906 L 273.746094 101.253906 L 273.746094 273.746094 L 101.253906 273.746094 Z M 101.253906 101.253906 " fill-opacity="1" fill-rule="nonzero"/></g></g><path fill="#000000" d="M 187.507812 148.496094 C 186.230469 148.496094 184.957031 148.558594 183.683594 148.6875 C 182.414062 148.8125 181.152344 149 179.898438 149.246094 C 178.644531 149.496094 177.40625 149.808594 176.183594 150.175781 C 174.960938 150.546875 173.757812 150.976562 172.578125 151.46875 C 171.398438 151.957031 170.246094 152.5 169.117188 153.105469 C 167.992188 153.707031 166.898438 154.363281 165.835938 155.070312 C 164.773438 155.78125 163.746094 156.542969 162.761719 157.351562 C 161.773438 158.164062 160.828125 159.019531 159.921875 159.921875 C 159.019531 160.828125 158.164062 161.773438 157.351562 162.761719 C 156.542969 163.746094 155.78125 164.773438 155.070312 165.835938 C 154.363281 166.898438 153.707031 167.992188 153.105469 169.117188 C 152.5 170.246094 151.957031 171.398438 151.46875 172.578125 C 150.976562 173.757812 150.546875 174.960938 150.175781 176.183594 C 149.808594 177.40625 149.496094 178.644531 149.246094 179.898438 C 149 181.152344 148.8125 182.414062 148.6875 183.683594 C 148.558594 184.957031 148.496094 186.230469 148.496094 187.507812 C 148.496094 188.785156 148.558594 190.058594 148.6875 191.332031 C 148.8125 192.601562 149 193.863281 149.246094 195.117188 C 149.496094 196.371094 149.808594 197.609375 150.175781 198.832031 C 150.546875 200.054688 150.976562 201.257812 151.46875 202.4375 C 151.957031 203.617188 152.5 204.769531 153.105469 205.898438 C 153.707031 207.023438 154.363281 208.117188 155.070312 209.179688 C 155.78125 210.242188 156.542969 211.269531 157.351562 212.253906 C 158.164062 213.242188 159.019531 214.1875 159.921875 215.09375 C 160.828125 215.996094 161.773438 216.851562 162.761719 217.664062 C 163.746094 218.472656 164.773438 219.234375 165.835938 219.945312 C 166.898438 220.652344 167.992188 221.308594 169.117188 221.910156 C 170.246094 222.515625 171.398438 223.058594 172.578125 223.546875 C 173.757812 224.039062 174.960938 224.46875 176.183594 224.839844 C 177.40625 225.207031 178.644531 225.519531 179.898438 225.769531 C 181.152344 226.015625 182.414062 226.203125 183.683594 226.328125 C 184.957031 226.457031 186.230469 226.519531 187.507812 226.519531 C 188.785156 226.519531 190.058594 226.457031 191.332031 226.328125 C 192.601562 226.203125 193.863281 226.015625 195.117188 225.769531 C 196.371094 225.519531 197.609375 225.207031 198.832031 224.839844 C 200.054688 224.46875 201.257812 224.039062 202.4375 223.546875 C 203.617188 223.058594 204.769531 222.515625 205.898438 221.910156 C 207.023438 221.308594 208.117188 220.652344 209.179688 219.945312 C 210.242188 219.234375 211.269531 218.472656 212.253906 217.664062 C 213.242188 216.851562 214.1875 215.996094 215.09375 215.09375 C 215.996094 214.1875 216.851562 213.242188 217.664062 212.253906 C 218.472656 211.269531 219.234375 210.242188 219.945312 209.179688 C 220.652344 208.117188 221.308594 207.023438 221.910156 205.898438 C 222.515625 204.769531 223.058594 203.617188 223.546875 202.4375 C 224.039062 201.257812 224.46875 200.054688 224.839844 198.832031 C 225.207031 197.609375 225.519531 196.371094 225.769531 195.117188 C 226.015625 193.863281 226.203125 192.601562 226.328125 191.332031 C 226.457031 190.058594 226.519531 188.785156 226.519531 187.507812 C 226.519531 186.230469 226.457031 184.957031 226.328125 183.683594 C 226.203125 182.414062 226.015625 181.152344 225.769531 179.898438 C 225.519531 178.644531 225.207031 177.40625 224.839844 176.183594 C 224.46875 174.960938 224.039062 173.757812 223.546875 172.578125 C 223.058594 171.398438 222.515625 170.246094 221.910156 169.117188 C 221.308594 167.992188 220.652344 166.898438 219.945312 165.835938 C 219.234375 164.773438 218.472656 163.746094 217.664062 162.761719 C 216.851562 161.773438 215.996094 160.828125 215.09375 159.921875 C 214.1875 159.019531 213.242188 158.164062 212.253906 157.351562 C 211.269531 156.542969 210.242188 155.78125 209.179688 155.070312 C 208.117188 154.363281 207.023438 153.707031 205.898438 153.105469 C 204.769531 152.5 203.617188 151.957031 202.4375 151.46875 C 201.257812 150.976562 200.054688 150.546875 198.832031 150.175781 C 197.609375 149.808594 196.371094 149.496094 195.117188 149.246094 C 193.863281 149 192.601562 148.8125 191.332031 148.6875 C 190.058594 148.558594 188.785156 148.496094 187.507812 148.496094 Z M 187.507812 220.945312 L 187.507812 154.070312 C 188.601562 154.070312 189.695312 154.125 190.785156 154.230469 C 191.875 154.339844 192.957031 154.5 194.03125 154.714844 C 195.105469 154.925781 196.167969 155.191406 197.214844 155.511719 C 198.261719 155.828125 199.292969 156.195312 200.304688 156.617188 C 201.316406 157.035156 202.304688 157.503906 203.269531 158.019531 C 204.234375 158.535156 205.175781 159.097656 206.085938 159.707031 C 206.996094 160.3125 207.875 160.964844 208.71875 161.660156 C 209.566406 162.355469 210.378906 163.089844 211.152344 163.863281 C 211.925781 164.636719 212.660156 165.449219 213.355469 166.296875 C 214.050781 167.140625 214.703125 168.019531 215.308594 168.929688 C 215.917969 169.839844 216.480469 170.78125 216.996094 171.746094 C 217.511719 172.710938 217.980469 173.699219 218.398438 174.710938 C 218.820312 175.722656 219.1875 176.753906 219.503906 177.800781 C 219.824219 178.847656 220.089844 179.910156 220.300781 180.984375 C 220.515625 182.058594 220.675781 183.140625 220.785156 184.230469 C 220.890625 185.320312 220.945312 186.414062 220.945312 187.507812 C 220.945312 188.601562 220.890625 189.695312 220.785156 190.785156 C 220.675781 191.875 220.515625 192.957031 220.300781 194.03125 C 220.089844 195.105469 219.824219 196.167969 219.503906 197.214844 C 219.1875 198.261719 218.820312 199.292969 218.398438 200.304688 C 217.980469 201.316406 217.511719 202.304688 216.996094 203.269531 C 216.480469 204.234375 215.917969 205.175781 215.308594 206.085938 C 214.703125 206.996094 214.050781 207.875 213.355469 208.71875 C 212.660156 209.566406 211.925781 210.378906 211.152344 211.152344 C 210.378906 211.925781 209.566406 212.660156 208.71875 213.355469 C 207.875 214.050781 206.996094 214.703125 206.085938 215.308594 C 205.175781 215.917969 204.234375 216.480469 203.269531 216.996094 C 202.304688 217.511719 201.316406 217.980469 200.304688 218.398438 C 199.292969 218.820312 198.261719 219.1875 197.214844 219.503906 C 196.167969 219.824219 195.105469 220.089844 194.03125 220.300781 C 192.957031 220.515625 191.875 220.675781 190.785156 220.785156 C 189.695312 220.890625 188.601562 220.945312 187.507812 220.945312 Z M 187.507812 220.945312 " fill-opacity="1" fill-rule="nonzero"/><g clip-path="url(#93e9f03260)"><path stroke-linecap="round" transform="matrix(1.857616, 0, 0, 1.857616, 117.382811, 117.382807)" fill="none" stroke-linejoin="round" d="M 37.750004 10.74967 L 37.750004 0.750713 " stroke="#000000" stroke-width="1.5" stroke-opacity="1" stroke-miterlimit="4"/></g><path stroke-linecap="round" transform="matrix(1.857616, 0, 0, 1.857616, 117.382811, 117.382807)" fill="none" stroke-linejoin="round" d="M 24.249836 14.370743 L 19.249306 5.709186 " stroke="#000000" stroke-width="1.5" stroke-opacity="1" stroke-miterlimit="4"/><path stroke-linecap="round" transform="matrix(1.857616, 0, 0, 1.857616, 117.382811, 117.382807)" fill="none" stroke-linejoin="round" d="M 14.370741 24.249838 L 5.709184 19.249308 " stroke="#000000" stroke-width="1.5" stroke-opacity="1" stroke-miterlimit="4"/><g clip-path="url(#649e826056)"><path stroke-linecap="round" transform="matrix(1.857616, 0, 0, 1.857616, 117.382811, 117.382807)" fill="none" stroke-linejoin="round" d="M 10.749667 37.750006 L 0.750711 37.750006 " stroke="#000000" stroke-width="1.5" stroke-opacity="1" stroke-miterlimit="4"/></g><path stroke-linecap="round" transform="matrix(1.857616, 0, 0, 1.857616, 117.382811, 117.382807)" fill="none" stroke-linejoin="round" d="M 14.370741 51.250174 L 5.709184 56.250704 " stroke="#000000" stroke-width="1.5" stroke-opacity="1" stroke-miterlimit="4"/><path stroke-linecap="round" transform="matrix(1.857616, 0, 0, 1.857616, 117.382811, 117.382807)" fill="none" stroke-linejoin="round" d="M 24.249836 61.129269 L 19.249306 69.790826 " stroke="#000000" stroke-width="1.5" stroke-opacity="1" stroke-miterlimit="4"/><g clip-path="url(#e2d57a2d2a)"><path stroke-linecap="round" transform="matrix(1.857616, 0, 0, 1.857616, 117.382811, 117.382807)" fill="none" stroke-linejoin="round" d="M 37.750004 64.750343 L 37.750004 74.749299 " stroke="#000000" stroke-width="1.5" stroke-opacity="1" stroke-miterlimit="4"/></g><path stroke-linecap="round" transform="matrix(1.857616, 0, 0, 1.857616, 117.382811, 117.382807)" fill="none" stroke-linejoin="round" d="M 51.250172 61.129269 L 56.250702 69.790826 " stroke="#000000" stroke-width="1.5" stroke-opacity="1" stroke-miterlimit="4"/><path stroke-linecap="round" transform="matrix(1.857616, 0, 0, 1.857616, 117.382811, 117.382807)" fill="none" stroke-linejoin="round" d="M 61.129267 51.250174 L 69.790824 56.250704 " stroke="#000000" stroke-width="1.5" stroke-opacity="1" stroke-miterlimit="4"/><g clip-path="url(#21493cf788)"><path stroke-linecap="round" transform="matrix(1.857616, 0, 0, 1.857616, 117.382811, 117.382807)" fill="none" stroke-linejoin="round" d="M 64.75034 37.750006 L 74.749297 37.750006 " stroke="#000000" stroke-width="1.5" stroke-opacity="1" stroke-miterlimit="4"/></g><path stroke-linecap="round" transform="matrix(1.857616, 0, 0, 1.857616, 117.382811, 117.382807)" fill="none" stroke-linejoin="round" d="M 61.129267 24.249838 L 69.790824 19.249308 " stroke="#000000" stroke-width="1.5" stroke-opacity="1" stroke-miterlimit="4"/><path stroke-linecap="round" transform="matrix(1.857616, 0, 0, 1.857616, 117.382811, 117.382807)" fill="none" stroke-linejoin="round" d="M 51.250172 14.370743 L 56.250702 5.709186 " stroke="#000000" stroke-width="1.5" stroke-opacity="1" stroke-miterlimit="4"/><g clip-path="url(#75562402df)"><g clip-path="url(#83ef21a421)"><path stroke-linecap="butt" transform="matrix(0.75, 0, 0, 0.75, 101.255578, 101.255573)" fill="none" stroke-linejoin="miter" d="M 114.99257 -0.0022228 C 51.48215 -0.0022228 -0.0022288 51.482156 -0.0022288 114.992576 C -0.0022288 178.502997 51.48215 229.982167 114.99257 229.982167 C 178.502991 229.982167 229.982161 178.502997 229.982161 114.992576 C 229.982161 51.482156 178.502991 -0.0022228 114.99257 -0.0022228 Z M 114.99257 -0.0022228 " stroke="#ffffff" stroke-width="118" stroke-opacity="1" stroke-miterlimit="4"/></g></g><g clip-path="url(#07391886aa)"><g clip-path="url(#ec4d42dfb7)"><path fill="#000000" d="M 101.253906 101.253906 L 273.746094 101.253906 L 273.746094 273.746094 L 101.253906 273.746094 Z M 101.253906 101.253906 " fill-opacity="1" fill-rule="nonzero"/></g></g><path fill="#ffffff" d="M 187.496094 148.492188 C 186.21875 148.492188 184.945312 148.554688 183.671875 148.679688 C 182.402344 148.804688 181.140625 148.992188 179.886719 149.242188 C 178.632812 149.492188 177.394531 149.800781 176.175781 150.171875 C 174.953125 150.542969 173.75 150.972656 172.570312 151.460938 C 171.390625 151.949219 170.238281 152.496094 169.109375 153.097656 C 167.984375 153.699219 166.890625 154.355469 165.828125 155.066406 C 164.765625 155.777344 163.738281 156.535156 162.753906 157.347656 C 161.765625 158.15625 160.820312 159.011719 159.917969 159.917969 C 159.011719 160.820312 158.15625 161.765625 157.347656 162.753906 C 156.535156 163.738281 155.777344 164.765625 155.066406 165.828125 C 154.355469 166.890625 153.699219 167.984375 153.097656 169.109375 C 152.496094 170.238281 151.949219 171.390625 151.460938 172.570312 C 150.972656 173.75 150.542969 174.953125 150.171875 176.175781 C 149.800781 177.394531 149.492188 178.632812 149.242188 179.886719 C 148.992188 181.140625 148.804688 182.402344 148.679688 183.671875 C 148.554688 184.945312 148.492188 186.21875 148.492188 187.496094 C 148.492188 188.773438 148.554688 190.046875 148.679688 191.320312 C 148.804688 192.589844 148.992188 193.851562 149.242188 195.105469 C 149.492188 196.359375 149.800781 197.597656 150.171875 198.816406 C 150.542969 200.039062 150.972656 201.242188 151.460938 202.421875 C 151.949219 203.601562 152.496094 204.753906 153.097656 205.882812 C 153.699219 207.007812 154.355469 208.101562 155.066406 209.164062 C 155.777344 210.226562 156.535156 211.253906 157.347656 212.238281 C 158.15625 213.226562 159.011719 214.171875 159.917969 215.074219 C 160.820312 215.980469 161.765625 216.835938 162.753906 217.644531 C 163.738281 218.457031 164.765625 219.214844 165.828125 219.925781 C 166.890625 220.636719 167.984375 221.292969 169.109375 221.894531 C 170.238281 222.496094 171.390625 223.042969 172.570312 223.53125 C 173.75 224.019531 174.953125 224.449219 176.175781 224.820312 C 177.394531 225.191406 178.632812 225.5 179.886719 225.75 C 181.140625 226 182.402344 226.1875 183.671875 226.3125 C 184.945312 226.4375 186.21875 226.5 187.496094 226.5 C 188.773438 226.5 190.046875 226.4375 191.320312 226.3125 C 192.589844 226.1875 193.851562 226 195.105469 225.75 C 196.359375 225.5 197.597656 225.191406 198.816406 224.820312 C 200.039062 224.449219 201.242188 224.019531 202.421875 223.53125 C 203.601562 223.042969 204.753906 222.496094 205.882812 221.894531 C 207.007812 221.292969 208.101562 220.636719 209.164062 219.925781 C 210.226562 219.214844 211.253906 218.457031 212.238281 217.644531 C 213.226562 216.835938 214.171875 215.980469 215.074219 215.074219 C 215.980469 214.171875 216.835938 213.226562 217.644531 212.238281 C 218.457031 211.253906 219.214844 210.226562 219.925781 209.164062 C 220.636719 208.101562 221.292969 207.007812 221.894531 205.882812 C 222.496094 204.753906 223.042969 203.601562 223.53125 202.421875 C 224.019531 201.242188 224.449219 200.039062 224.820312 198.816406 C 225.191406 197.597656 225.5 196.359375 225.75 195.105469 C 226 193.851562 226.1875 192.589844 226.3125 191.320312 C 226.4375 190.046875 226.5 188.773438 226.5 187.496094 C 226.5 186.21875 226.4375 184.945312 226.3125 183.671875 C 226.1875 182.402344 226 181.140625 225.75 179.886719 C 225.5 178.632812 225.191406 177.394531 224.820312 176.175781 C 224.449219 174.953125 224.019531 173.75 223.53125 172.570312 C 223.042969 171.390625 222.496094 170.238281 221.894531 169.109375 C 221.292969 167.984375 220.636719 166.890625 219.925781 165.828125 C 219.214844 164.765625 218.457031 163.738281 217.644531 162.753906 C 216.835938 161.765625 215.980469 160.820312 215.074219 159.917969 C 214.171875 159.011719 213.226562 158.15625 212.238281 157.347656 C 211.253906 156.535156 210.226562 155.777344 209.164062 155.066406 C 208.101562 154.355469 207.007812 153.699219 205.882812 153.097656 C 204.753906 152.496094 203.601562 151.949219 202.421875 151.460938 C 201.242188 150.972656 200.039062 150.542969 198.816406 150.171875 C 197.597656 149.800781 196.359375 149.492188 195.105469 149.242188 C 193.851562 148.992188 192.589844 148.804688 191.320312 148.679688 C 190.046875 148.554688 188.773438 148.492188 187.496094 148.492188 Z M 187.496094 220.925781 L 187.496094 154.066406 C 188.589844 154.066406 189.683594 154.117188 190.773438 154.226562 C 191.863281 154.332031 192.945312 154.492188 194.019531 154.707031 C 195.09375 154.921875 196.152344 155.1875 197.199219 155.503906 C 198.25 155.820312 199.277344 156.191406 200.289062 156.609375 C 201.300781 157.027344 202.289062 157.496094 203.253906 158.011719 C 204.222656 158.527344 205.160156 159.089844 206.070312 159.699219 C 206.980469 160.308594 207.859375 160.957031 208.703125 161.652344 C 209.550781 162.347656 210.363281 163.082031 211.136719 163.855469 C 211.910156 164.628906 212.644531 165.441406 213.339844 166.289062 C 214.035156 167.132812 214.683594 168.011719 215.292969 168.921875 C 215.902344 169.832031 216.464844 170.769531 216.980469 171.738281 C 217.496094 172.703125 217.964844 173.691406 218.382812 174.703125 C 218.800781 175.714844 219.171875 176.742188 219.488281 177.792969 C 219.804688 178.839844 220.070312 179.898438 220.285156 180.972656 C 220.5 182.046875 220.660156 183.128906 220.765625 184.21875 C 220.875 185.308594 220.925781 186.402344 220.925781 187.496094 C 220.925781 188.589844 220.875 189.683594 220.765625 190.773438 C 220.660156 191.863281 220.5 192.945312 220.285156 194.019531 C 220.070312 195.09375 219.804688 196.152344 219.488281 197.199219 C 219.171875 198.25 218.800781 199.277344 218.382812 200.289062 C 217.964844 201.300781 217.496094 202.289062 216.980469 203.253906 C 216.464844 204.222656 215.902344 205.160156 215.292969 206.070312 C 214.683594 206.980469 214.035156 207.859375 213.339844 208.703125 C 212.644531 209.550781 211.910156 210.363281 211.136719 211.136719 C 210.363281 211.910156 209.550781 212.644531 208.703125 213.339844 C 207.859375 214.035156 206.980469 214.683594 206.070312 215.292969 C 205.160156 215.902344 204.222656 216.464844 203.253906 216.980469 C 202.289062 217.496094 201.300781 217.964844 200.289062 218.382812 C 199.277344 218.800781 198.25 219.171875 197.199219 219.488281 C 196.152344 219.804688 195.09375 220.070312 194.019531 220.285156 C 192.945312 220.5 191.863281 220.660156 190.773438 220.765625 C 189.683594 220.875 188.589844 220.925781 187.496094 220.925781 Z M 187.496094 220.925781 " fill-opacity="1" fill-rule="nonzero"/><g clip-path="url(#ef99c7aef9)"><path stroke-linecap="round" transform="matrix(1.857305, 0, 0, 1.857305, 117.382811, 117.382807)" fill="none" stroke-linejoin="round" d="M 37.750003 10.749363 L 37.750003 0.750839 " stroke="#000000" stroke-width="1.5" stroke-opacity="1" stroke-miterlimit="4"/></g><path stroke-linecap="round" transform="matrix(1.857305, 0, 0, 1.857305, 117.382811, 117.382807)" fill="none" stroke-linejoin="round" d="M 24.249682 14.371041 L 19.250419 5.71014 " stroke="#000000" stroke-width="1.5" stroke-opacity="1" stroke-miterlimit="4"/><path stroke-linecap="round" transform="matrix(1.857305, 0, 0, 1.857305, 117.382811, 117.382807)" fill="none" stroke-linejoin="round" d="M 14.371039 24.249684 L 5.710138 19.250422 " stroke="#000000" stroke-width="1.5" stroke-opacity="1" stroke-miterlimit="4"/><g clip-path="url(#fb8054bf9c)"><path stroke-linecap="round" transform="matrix(1.857305, 0, 0, 1.857305, 117.382811, 117.382807)" fill="none" stroke-linejoin="round" d="M 10.749361 37.750005 L 0.750836 37.750005 " stroke="#000000" stroke-width="1.5" stroke-opacity="1" stroke-miterlimit="4"/></g><path stroke-linecap="round" transform="matrix(1.857305, 0, 0, 1.857305, 117.382811, 117.382807)" fill="none" stroke-linejoin="round" d="M 14.371039 51.250326 L 5.710138 56.249588 " stroke="#000000" stroke-width="1.5" stroke-opacity="1" stroke-miterlimit="4"/><path stroke-linecap="round" transform="matrix(1.857305, 0, 0, 1.857305, 117.382811, 117.382807)" fill="none" stroke-linejoin="round" d="M 24.249682 61.128969 L 19.250419 69.789869 " stroke="#000000" stroke-width="1.5" stroke-opacity="1" stroke-miterlimit="4"/><g clip-path="url(#0884625e55)"><path stroke-linecap="round" transform="matrix(1.857305, 0, 0, 1.857305, 117.382811, 117.382807)" fill="none" stroke-linejoin="round" d="M 37.750003 64.750647 L 37.750003 74.749171 " stroke="#000000" stroke-width="1.5" stroke-opacity="1" stroke-miterlimit="4"/></g><path stroke-linecap="round" transform="matrix(1.857305, 0, 0, 1.857305, 117.382811, 117.382807)" fill="none" stroke-linejoin="round" d="M 51.250324 61.128969 L 56.249586 69.789869 " stroke="#000000" stroke-width="1.5" stroke-opacity="1" stroke-miterlimit="4"/><path stroke-linecap="round" transform="matrix(1.857305, 0, 0, 1.857305, 117.382811, 117.382807)" fill="none" stroke-linejoin="round" d="M 61.128966 51.250326 L 69.789867 56.249588 " stroke="#000000" stroke-width="1.5" stroke-opacity="1" stroke-miterlimit="4"/><g clip-path="url(#14b5235180)"><path stroke-linecap="round" transform="matrix(1.857305, 0, 0, 1.857305, 117.382811, 117.382807)" fill="none" stroke-linejoin="round" d="M 64.750645 37.750005 L 74.749169 37.750005 " stroke="#000000" stroke-width="1.5" stroke-opacity="1" stroke-miterlimit="4"/></g><path stroke-linecap="round" transform="matrix(1.857305, 0, 0, 1.857305, 117.382811, 117.382807)" fill="none" stroke-linejoin="round" d="M 61.128966 24.249684 L 69.789867 19.250422 " stroke="#000000" stroke-width="1.5" stroke-opacity="1" stroke-miterlimit="4"/><path stroke-linecap="round" transform="matrix(1.857305, 0, 0, 1.857305, 117.382811, 117.382807)" fill="none" stroke-linejoin="round" d="M 51.250324 14.371041 L 56.249586 5.71014 " stroke="#000000" stroke-width="1.5" stroke-opacity="1" stroke-miterlimit="4"/><g clip-path="url(#4bead0b027)"><g clip-path="url(#a5a18c4411)"><path stroke-linecap="butt" transform="matrix(0.75, 0, 0, 0.75, 97.62834, 97.628336)" fill="none" stroke-linejoin="miter" d="M 119.828887 0.000760348 C 53.646591 0.000760348 0.000754348 53.646597 0.000754348 119.828893 C 0.000754348 186.005981 53.646591 239.657026 119.828887 239.657026 C 186.005975 239.657026 239.65702 186.005981 239.65702 119.828893 C 239.65702 53.646597 186.005975 0.000760348 119.828887 0.000760348 Z M 119.828887 0.000760348 " stroke="#000000" stroke-width="118" stroke-opacity="1" stroke-miterlimit="4"/></g></g></svg>
