<svg xmlns="http://www.w3.org/2000/svg" xmlns:xlink="http://www.w3.org/1999/xlink" width="500" zoomAndPan="magnify" viewBox="0 0 375 374.999991" height="500" preserveAspectRatio="xMidYMid meet" version="1.0"><defs><clipPath id="6f7ffbb37c"><path d="M 101.253906 101.253906 L 273.746094 101.253906 L 273.746094 273.746094 L 101.253906 273.746094 Z M 101.253906 101.253906 " clip-rule="nonzero"/></clipPath><clipPath id="29033ce09f"><path d="M 187.5 101.253906 C 139.867188 101.253906 101.253906 139.867188 101.253906 187.5 C 101.253906 235.132812 139.867188 273.746094 187.5 273.746094 C 235.132812 273.746094 273.746094 235.132812 273.746094 187.5 C 273.746094 139.867188 235.132812 101.253906 187.5 101.253906 Z M 187.5 101.253906 " clip-rule="nonzero"/></clipPath><clipPath id="042bc7e73e"><path d="M 186 117.382812 L 189 117.382812 L 189 139 L 186 139 Z M 186 117.382812 " clip-rule="nonzero"/></clipPath><clipPath id="f0e0efe442"><path d="M 117.382812 186 L 139 186 L 139 189 L 117.382812 189 Z M 117.382812 186 " clip-rule="nonzero"/></clipPath><clipPath id="9f10013604"><path d="M 186 236 L 189 236 L 189 257.632812 L 186 257.632812 Z M 186 236 " clip-rule="nonzero"/></clipPath><clipPath id="2bcb656c38"><path d="M 236 186 L 257.632812 186 L 257.632812 189 L 236 189 Z M 236 186 " clip-rule="nonzero"/></clipPath></defs><g clip-path="url(#6f7ffbb37c)"><g clip-path="url(#29033ce09f)"><path fill="#ffffff" d="M 101.253906 101.253906 L 273.746094 101.253906 L 273.746094 273.746094 L 101.253906 273.746094 Z M 101.253906 101.253906 " fill-opacity="1" fill-rule="nonzero"/></g></g><path fill="#000000" d="M 187.507812 148.496094 C 186.230469 148.496094 184.957031 148.558594 183.683594 148.6875 C 182.414062 148.8125 181.152344 149 179.898438 149.246094 C 178.644531 149.496094 177.40625 149.808594 176.183594 150.175781 C 174.960938 150.546875 173.757812 150.976562 172.578125 151.46875 C 171.398438 151.957031 170.246094 152.5 169.117188 153.105469 C 167.992188 153.707031 166.898438 154.363281 165.835938 155.070312 C 164.773438 155.78125 163.746094 156.542969 162.761719 157.351562 C 161.773438 158.164062 160.828125 159.019531 159.921875 159.921875 C 159.019531 160.828125 158.164062 161.773438 157.351562 162.761719 C 156.542969 163.746094 155.78125 164.773438 155.070312 165.835938 C 154.363281 166.898438 153.707031 167.992188 153.105469 169.117188 C 152.5 170.246094 151.957031 171.398438 151.46875 172.578125 C 150.976562 173.757812 150.546875 174.960938 150.175781 176.183594 C 149.808594 177.40625 149.496094 178.644531 149.246094 179.898438 C 149 181.152344 148.8125 182.414062 148.6875 183.683594 C 148.558594 184.957031 148.496094 186.230469 148.496094 187.507812 C 148.496094 188.785156 148.558594 190.058594 148.6875 191.332031 C 148.8125 192.601562 149 193.863281 149.246094 195.117188 C 149.496094 196.371094 149.808594 197.609375 150.175781 198.832031 C 150.546875 200.054688 150.976562 201.257812 151.46875 202.4375 C 151.957031 203.617188 152.5 204.769531 153.105469 205.898438 C 153.707031 207.023438 154.363281 208.117188 155.070312 209.179688 C 155.78125 210.242188 156.542969 211.269531 157.351562 212.253906 C 158.164062 213.242188 159.019531 214.1875 159.921875 215.09375 C 160.828125 215.996094 161.773438 216.851562 162.761719 217.664062 C 163.746094 218.472656 164.773438 219.234375 165.835938 219.945312 C 166.898438 220.652344 167.992188 221.308594 169.117188 221.910156 C 170.246094 222.515625 171.398438 223.058594 172.578125 223.546875 C 173.757812 224.039062 174.960938 224.46875 176.183594 224.839844 C 177.40625 225.207031 178.644531 225.519531 179.898438 225.769531 C 181.152344 226.015625 182.414062 226.203125 183.683594 226.328125 C 184.957031 226.457031 186.230469 226.519531 187.507812 226.519531 C 188.785156 226.519531 190.058594 226.457031 191.332031 226.328125 C 192.601562 226.203125 193.863281 226.015625 195.117188 225.769531 C 196.371094 225.519531 197.609375 225.207031 198.832031 224.839844 C 200.054688 224.46875 201.257812 224.039062 202.4375 223.546875 C 203.617188 223.058594 204.769531 222.515625 205.898438 221.910156 C 207.023438 221.308594 208.117188 220.652344 209.179688 219.945312 C 210.242188 219.234375 211.269531 218.472656 212.253906 217.664062 C 213.242188 216.851562 214.1875 215.996094 215.09375 215.09375 C 215.996094 214.1875 216.851562 213.242188 217.664062 212.253906 C 218.472656 211.269531 219.234375 210.242188 219.945312 209.179688 C 220.652344 208.117188 221.308594 207.023438 221.910156 205.898438 C 222.515625 204.769531 223.058594 203.617188 223.546875 202.4375 C 224.039062 201.257812 224.46875 200.054688 224.839844 198.832031 C 225.207031 197.609375 225.519531 196.371094 225.769531 195.117188 C 226.015625 193.863281 226.203125 192.601562 226.328125 191.332031 C 226.457031 190.058594 226.519531 188.785156 226.519531 187.507812 C 226.519531 186.230469 226.457031 184.957031 226.328125 183.683594 C 226.203125 182.414062 226.015625 181.152344 225.769531 179.898438 C 225.519531 178.644531 225.207031 177.40625 224.839844 176.183594 C 224.46875 174.960938 224.039062 173.757812 223.546875 172.578125 C 223.058594 171.398438 222.515625 170.246094 221.910156 169.117188 C 221.308594 167.992188 220.652344 166.898438 219.945312 165.835938 C 219.234375 164.773438 218.472656 163.746094 217.664062 162.761719 C 216.851562 161.773438 215.996094 160.828125 215.09375 159.921875 C 214.1875 159.019531 213.242188 158.164062 212.253906 157.351562 C 211.269531 156.542969 210.242188 155.78125 209.179688 155.070312 C 208.117188 154.363281 207.023438 153.707031 205.898438 153.105469 C 204.769531 152.5 203.617188 151.957031 202.4375 151.46875 C 201.257812 150.976562 200.054688 150.546875 198.832031 150.175781 C 197.609375 149.808594 196.371094 149.496094 195.117188 149.246094 C 193.863281 149 192.601562 148.8125 191.332031 148.6875 C 190.058594 148.558594 188.785156 148.496094 187.507812 148.496094 Z M 187.507812 220.945312 L 187.507812 154.070312 C 188.601562 154.070312 189.695312 154.125 190.785156 154.230469 C 191.875 154.339844 192.957031 154.5 194.03125 154.714844 C 195.105469 154.925781 196.167969 155.191406 197.214844 155.511719 C 198.261719 155.828125 199.292969 156.195312 200.304688 156.617188 C 201.316406 157.035156 202.304688 157.503906 203.269531 158.019531 C 204.234375 158.535156 205.175781 159.097656 206.085938 159.707031 C 206.996094 160.3125 207.875 160.964844 208.71875 161.660156 C 209.566406 162.355469 210.378906 163.089844 211.152344 163.863281 C 211.925781 164.636719 212.660156 165.449219 213.355469 166.296875 C 214.050781 167.140625 214.703125 168.019531 215.308594 168.929688 C 215.917969 169.839844 216.480469 170.78125 216.996094 171.746094 C 217.511719 172.710938 217.980469 173.699219 218.398438 174.710938 C 218.820312 175.722656 219.1875 176.753906 219.503906 177.800781 C 219.824219 178.847656 220.089844 179.910156 220.300781 180.984375 C 220.515625 182.058594 220.675781 183.140625 220.785156 184.230469 C 220.890625 185.320312 220.945312 186.414062 220.945312 187.507812 C 220.945312 188.601562 220.890625 189.695312 220.785156 190.785156 C 220.675781 191.875 220.515625 192.957031 220.300781 194.03125 C 220.089844 195.105469 219.824219 196.167969 219.503906 197.214844 C 219.1875 198.261719 218.820312 199.292969 218.398438 200.304688 C 217.980469 201.316406 217.511719 202.304688 216.996094 203.269531 C 216.480469 204.234375 215.917969 205.175781 215.308594 206.085938 C 214.703125 206.996094 214.050781 207.875 213.355469 208.71875 C 212.660156 209.566406 211.925781 210.378906 211.152344 211.152344 C 210.378906 211.925781 209.566406 212.660156 208.71875 213.355469 C 207.875 214.050781 206.996094 214.703125 206.085938 215.308594 C 205.175781 215.917969 204.234375 216.480469 203.269531 216.996094 C 202.304688 217.511719 201.316406 217.980469 200.304688 218.398438 C 199.292969 218.820312 198.261719 219.1875 197.214844 219.503906 C 196.167969 219.824219 195.105469 220.089844 194.03125 220.300781 C 192.957031 220.515625 191.875 220.675781 190.785156 220.785156 C 189.695312 220.890625 188.601562 220.945312 187.507812 220.945312 Z M 187.507812 220.945312 " fill-opacity="1" fill-rule="nonzero"/><g clip-path="url(#042bc7e73e)"><path stroke-linecap="round" transform="matrix(1.857616, 0, 0, 1.857616, 117.382811, 117.382807)" fill="none" stroke-linejoin="round" d="M 37.750004 10.74967 L 37.750004 0.750713 " stroke="#000000" stroke-width="1.5" stroke-opacity="1" stroke-miterlimit="4"/></g><path stroke-linecap="round" transform="matrix(1.857616, 0, 0, 1.857616, 117.382811, 117.382807)" fill="none" stroke-linejoin="round" d="M 24.249836 14.370743 L 19.249306 5.709186 " stroke="#000000" stroke-width="1.5" stroke-opacity="1" stroke-miterlimit="4"/><path stroke-linecap="round" transform="matrix(1.857616, 0, 0, 1.857616, 117.382811, 117.382807)" fill="none" stroke-linejoin="round" d="M 14.370741 24.249838 L 5.709184 19.249308 " stroke="#000000" stroke-width="1.5" stroke-opacity="1" stroke-miterlimit="4"/><g clip-path="url(#f0e0efe442)"><path stroke-linecap="round" transform="matrix(1.857616, 0, 0, 1.857616, 117.382811, 117.382807)" fill="none" stroke-linejoin="round" d="M 10.749667 37.750006 L 0.750711 37.750006 " stroke="#000000" stroke-width="1.5" stroke-opacity="1" stroke-miterlimit="4"/></g><path stroke-linecap="round" transform="matrix(1.857616, 0, 0, 1.857616, 117.382811, 117.382807)" fill="none" stroke-linejoin="round" d="M 14.370741 51.250174 L 5.709184 56.250704 " stroke="#000000" stroke-width="1.5" stroke-opacity="1" stroke-miterlimit="4"/><path stroke-linecap="round" transform="matrix(1.857616, 0, 0, 1.857616, 117.382811, 117.382807)" fill="none" stroke-linejoin="round" d="M 24.249836 61.129269 L 19.249306 69.790826 " stroke="#000000" stroke-width="1.5" stroke-opacity="1" stroke-miterlimit="4"/><g clip-path="url(#9f10013604)"><path stroke-linecap="round" transform="matrix(1.857616, 0, 0, 1.857616, 117.382811, 117.382807)" fill="none" stroke-linejoin="round" d="M 37.750004 64.750343 L 37.750004 74.749299 " stroke="#000000" stroke-width="1.5" stroke-opacity="1" stroke-miterlimit="4"/></g><path stroke-linecap="round" transform="matrix(1.857616, 0, 0, 1.857616, 117.382811, 117.382807)" fill="none" stroke-linejoin="round" d="M 51.250172 61.129269 L 56.250702 69.790826 " stroke="#000000" stroke-width="1.5" stroke-opacity="1" stroke-miterlimit="4"/><path stroke-linecap="round" transform="matrix(1.857616, 0, 0, 1.857616, 117.382811, 117.382807)" fill="none" stroke-linejoin="round" d="M 61.129267 51.250174 L 69.790824 56.250704 " stroke="#000000" stroke-width="1.5" stroke-opacity="1" stroke-miterlimit="4"/><g clip-path="url(#2bcb656c38)"><path stroke-linecap="round" transform="matrix(1.857616, 0, 0, 1.857616, 117.382811, 117.382807)" fill="none" stroke-linejoin="round" d="M 64.75034 37.750006 L 74.749297 37.750006 " stroke="#000000" stroke-width="1.5" stroke-opacity="1" stroke-miterlimit="4"/></g><path stroke-linecap="round" transform="matrix(1.857616, 0, 0, 1.857616, 117.382811, 117.382807)" fill="none" stroke-linejoin="round" d="M 61.129267 24.249838 L 69.790824 19.249308 " stroke="#000000" stroke-width="1.5" stroke-opacity="1" stroke-miterlimit="4"/><path stroke-linecap="round" transform="matrix(1.857616, 0, 0, 1.857616, 117.382811, 117.382807)" fill="none" stroke-linejoin="round" d="M 51.250172 14.370743 L 56.250702 5.709186 " stroke="#000000" stroke-width="1.5" stroke-opacity="1" stroke-miterlimit="4"/></svg>